<?xml version="1.0" encoding="UTF-8" standalone="no"?>
<!-- Created with Inkscape (http://www.inkscape.org/) -->

<svg
   width="7.2525587mm"
   height="9.8988848mm"
   viewBox="0 0 7.2525587 9.8988848"
   version="1.1"
   id="svg29398"
   xmlns="http://www.w3.org/2000/svg"
   xmlns:svg="http://www.w3.org/2000/svg">
  <defs
     id="defs29395">
    <clipPath
       clipPathUnits="userSpaceOnUse"
       id="clipPath11119-3-1">
      <path
         d="m 8.9858,40.50708 h 577.304 v 760.8472 H 8.9858 Z"
         transform="translate(2.0000001e-4,2.5000001e-5)"
         id="path11119-6-2" />
    </clipPath>
    <clipPath
       clipPathUnits="userSpaceOnUse"
       id="clipPath11123-7-7">
      <path
         d="m 8.9858,40.50708 h 577.304 v 760.8472 H 8.9858 Z"
         transform="translate(2.0000001e-4,2.5000001e-5)"
         id="path11123-5-0" />
    </clipPath>
    <clipPath
       clipPathUnits="userSpaceOnUse"
       id="clipPath11125-3-9">
      <path
         d="m 8.9858,40.50708 h 577.304 v 760.8472 H 8.9858 Z"
         transform="translate(2.0000001e-4,2.5000001e-5)"
         id="path11125-5-3" />
    </clipPath>
  </defs>
  <g
     id="layer1"
     transform="translate(-1.2602731,-13.053443)">
    <path
       id="path11118-6-6"
       d="m 385.0947,635.9337 c -14.206,0 -16.78,-5.353 -16.78,-5.353 l -1.75,0.515 c 0,0 2.162,7.618 19.354,6.073 z"
       style="fill:#117097;fill-opacity:1;fill-rule:nonzero;stroke:none"
       transform="matrix(0.11127338,0,0,-0.11127338,-35.38235,92.961055)"
       clip-path="url(#clipPath11119-3-1)" />
    <path
       id="path11122-2-0"
       d="m 390.5381,637.9877 c -0.82,0.82 -1.621,3.927 -0.328,9.187 2.452,9.976 1.476,9.515 1.476,13.288 0,3.773 0,4.921 1.477,6.398 1.476,1.476 1.312,2.953 1.312,10.007 0,17.416 -9.925,30.922 -13.452,34.449 -3.527,3.527 -15.092,9.351 -20.506,5.578 -5.414,-3.773 -20.506,-9.023 -27.396,-24.279 -6.89,-15.257 0,-27.396 0,-27.396 0,0 -7.532,-15.345 -1.439,-24.484 6.092,-9.139 13.813,-13.195 20.41,-4.772 4.772,6.092 5.991,1.827 7.92,-0.102 1.929,-1.929 3.656,-4.772 4.366,-6.702 l 0.914,3.25 c 0,0 -5.94,6.549 -7.615,8.224 -1.676,1.676 -0.813,17.567 -0.813,20.817 0,3.249 11.068,8.225 14.622,9.24 0,0 -9.24,-2.437 -11.575,-3.655 -2.336,-1.219 -3.758,1.218 -3.758,3.757 0,2.538 3.554,12.286 3.554,18.48 0,6.194 -3.464,15.681 1.524,22.238 4.987,6.556 14.047,3.849 21.323,-14.521 6.194,-15.637 4.468,-29.142 4.468,-31.985 -2.741,-1.016 -11.22,3.3 -12.388,4.468 0,0 5.382,-4.671 12.693,-8.53 3.263,-1.722 2.234,-6.499 1.218,-10.764 -1.015,-4.264 -2.031,-11.068 0.508,-13.606 z"
       style="fill:#117097;fill-opacity:1;fill-rule:nonzero;stroke:none"
       transform="matrix(0.11127338,0,0,-0.11127338,-35.38235,92.961055)"
       clip-path="url(#clipPath11123-7-7)" />
    <path
       id="path11124-9-6"
       d="m 342.2424,673.7369 c 0,0 2.64,-4.671 8.326,-7.717 4.62,-2.475 4.164,-10.865 4.164,-17.262 0,-6.398 -3.047,-13.201 -8.022,-14.419 -4.976,-1.219 -10.459,-1.422 -14.114,9.748 -3.656,11.169 0.507,15.231 2.03,18.684 1.524,3.452 1.93,4.569 2.742,6.498 0.812,1.93 1.675,3.808 2.437,4.57 -1.478,-1.083 -3.554,-3.047 -4.874,-5.484 0,0 -4.163,15.232 2.742,25.284 6.904,10.053 11.474,13.708 13.809,15.028 0,0 1.828,1.929 1.32,-6.397 -0.507,-8.326 -1.929,-23.862 -1.32,-27.619 0.61,-3.757 1.193,-6.684 -1.32,-5.788 -3.157,1.126 -5.077,2.945 -7.92,4.874"
       style="fill:#ffffff;fill-opacity:1;fill-rule:nonzero;stroke:none"
       transform="matrix(0.11127338,0,0,-0.11127338,-35.38235,92.961055)"
       clip-path="url(#clipPath11125-3-9)" />
    <path
       style="fill:#e83e62;fill-opacity:0.994936;fill-rule:evenodd;stroke-width:0.106;paint-order:stroke fill markers;stop-color:#000000"
       d="M 4.7280778,21.827494 C 4.3574106,21.57124 4.449804,21.064126 4.4393101,20.69082 c -0.043847,-1.559812 0.035829,-1.499344 0.3941616,-1.70435 1.1657245,-0.666922 1.8114688,-0.105573 2.4523653,0.323434 0.6280427,0.420403 0.596721,0.567422 0.42876,1.389425 -0.1826662,0.893969 -0.046061,1.075877 -0.132082,1.201603 -0.075822,0.11082 -1.0541907,-0.122509 -1.4948537,0.101419 -1.1962693,0.607898 -0.5603226,0.377697 -1.3595835,-0.174857 z"
       id="path29774-2" />
    <path
       style="fill:#ffffff;fill-opacity:1;fill-rule:evenodd;stroke-width:0.106;paint-order:stroke fill markers;stop-color:#000000"
       d="M 4.4137843,18.774486 C 4.0891726,18.412888 4.3473284,18.015307 4.3889702,17.648947 4.442615,17.176985 4.638265,16.832442 4.6374416,16.285672 4.6363838,15.583184 4.3198403,14.811775 4.6053645,14.169928 4.78093,13.775264 5.034476,13.28277 5.6174307,13.44347 c 1.2854297,0.354346 1.5053786,1.776805 1.8652977,2.787913 0.3045423,0.85554 0.3235581,2.588183 0.2219646,2.721543 -0.2023509,0.265623 -1.2063438,-0.333583 -1.6500764,-0.603373 -0.7552664,0.122999 -1.4535252,0.633582 -1.6408323,0.424933 z"
       id="path34283" />
  </g>
</svg>
