<?xml version="1.0" encoding="UTF-8" standalone="no"?>
<!-- Created with Inkscape (http://www.inkscape.org/) -->

<svg
   width="7.2525578mm"
   height="9.8988848mm"
   viewBox="0 0 7.2525578 9.8988848"
   version="1.1"
   id="svg29398"
   xmlns="http://www.w3.org/2000/svg"
   xmlns:svg="http://www.w3.org/2000/svg">
  <defs
     id="defs29395">
    <clipPath
       clipPathUnits="userSpaceOnUse"
       id="clipPath11119-3">
      <path
         d="m 8.9858,40.50708 h 577.304 v 760.8472 H 8.9858 Z"
         transform="translate(2.0000001e-4,2.5000001e-5)"
         id="path11119-6" />
    </clipPath>
    <clipPath
       clipPathUnits="userSpaceOnUse"
       id="clipPath11123-7">
      <path
         d="m 8.9858,40.50708 h 577.304 v 760.8472 H 8.9858 Z"
         transform="translate(2.0000001e-4,2.5000001e-5)"
         id="path11123-5" />
    </clipPath>
    <clipPath
       clipPathUnits="userSpaceOnUse"
       id="clipPath11125-3">
      <path
         d="m 8.9858,40.50708 h 577.304 v 760.8472 H 8.9858 Z"
         transform="translate(2.0000001e-4,2.5000001e-5)"
         id="path11125-5" />
    </clipPath>
  </defs>
  <g
     id="layer1"
     transform="translate(-15.269602,-1.4685224)">
    <path
       id="path11118-6"
       d="m 385.0947,635.9337 c -14.206,0 -16.78,-5.353 -16.78,-5.353 l -1.75,0.515 c 0,0 2.162,7.618 19.354,6.073 z"
       style="fill:#117097;fill-opacity:1;fill-rule:nonzero;stroke:none"
       transform="matrix(0.11127338,0,0,-0.11127338,-21.373021,81.376135)"
       clip-path="url(#clipPath11119-3)" />
    <path
       id="path11122-2"
       d="m 390.5381,637.9877 c -0.82,0.82 -1.621,3.927 -0.328,9.187 2.452,9.976 1.476,9.515 1.476,13.288 0,3.773 0,4.921 1.477,6.398 1.476,1.476 1.312,2.953 1.312,10.007 0,17.416 -9.925,30.922 -13.452,34.449 -3.527,3.527 -15.092,9.351 -20.506,5.578 -5.414,-3.773 -20.506,-9.023 -27.396,-24.279 -6.89,-15.257 0,-27.396 0,-27.396 0,0 -7.532,-15.345 -1.439,-24.484 6.092,-9.139 13.813,-13.195 20.41,-4.772 4.772,6.092 5.991,1.827 7.92,-0.102 1.929,-1.929 3.656,-4.772 4.366,-6.702 l 0.914,3.25 c 0,0 -5.94,6.549 -7.615,8.224 -1.676,1.676 -0.813,17.567 -0.813,20.817 0,3.249 11.068,8.225 14.622,9.24 0,0 -9.24,-2.437 -11.575,-3.655 -2.336,-1.219 -3.758,1.218 -3.758,3.757 0,2.538 3.554,12.286 3.554,18.48 0,6.194 -3.464,15.681 1.524,22.238 4.987,6.556 14.047,3.849 21.323,-14.521 6.194,-15.637 4.468,-29.142 4.468,-31.985 -2.741,-1.016 -11.22,3.3 -12.388,4.468 0,0 5.382,-4.671 12.693,-8.53 3.263,-1.722 2.234,-6.499 1.218,-10.764 -1.015,-4.264 -2.031,-11.068 0.508,-13.606 z"
       style="fill:#117097;fill-opacity:1;fill-rule:nonzero;stroke:none"
       transform="matrix(0.11127338,0,0,-0.11127338,-21.373021,81.376135)"
       clip-path="url(#clipPath11123-7)" />
    <path
       id="path11124-9"
       d="m 342.2424,673.7369 c 0,0 2.64,-4.671 8.326,-7.717 4.62,-2.475 4.164,-10.865 4.164,-17.262 0,-6.398 -3.047,-13.201 -8.022,-14.419 -4.976,-1.219 -10.459,-1.422 -14.114,9.748 -3.656,11.169 0.507,15.231 2.03,18.684 1.524,3.452 1.93,4.569 2.742,6.498 0.812,1.93 1.675,3.808 2.437,4.57 -1.478,-1.083 -3.554,-3.047 -4.874,-5.484 0,0 -4.163,15.232 2.742,25.284 6.904,10.053 11.474,13.708 13.809,15.028 0,0 1.828,1.929 1.32,-6.397 -0.507,-8.326 -1.929,-23.862 -1.32,-27.619 0.61,-3.757 1.193,-6.684 -1.32,-5.788 -3.157,1.126 -5.077,2.945 -7.92,4.874"
       style="fill:#ffffff;fill-opacity:1;fill-rule:nonzero;stroke:none"
       transform="matrix(0.11127338,0,0,-0.11127338,-21.373021,81.376135)"
       clip-path="url(#clipPath11125-3)" />
    <path
       style="fill:#ffffff;fill-opacity:1;fill-rule:evenodd;stroke-width:0.106;paint-order:stroke fill markers;stop-color:#000000"
       d="m 18.386671,7.6295335 c 0.312236,-0.3798818 1.419495,-0.8471683 1.554554,-0.8466245 0.192952,7.768e-4 0.209768,0.058462 0.555914,0.2472695 0.346146,0.1888071 0.499808,0.3225854 1.361756,0.8807953 0.296984,0.5453665 0.05753,0.5174406 -0.100774,1.8311509 -0.03186,0.2644003 0.01374,0.4675623 0.03453,0.7981933 -0.271155,-0.06325 -0.87408,-0.14291 -1.353926,-0.03109 -0.376409,0.08771 -0.852551,0.238475 -1.01569,0.64693 -0.380652,-0.423166 -0.507619,-0.509983 -1.031857,-1.113024 -0.06588,-0.5933947 -0.145755,-1.8842488 -0.0045,-2.4136005 z"
       id="path33181-5" />
    <path
       style="fill:#ffffff;fill-opacity:1;fill-rule:evenodd;stroke-width:0.106;paint-order:stroke fill markers;stop-color:#000000"
       d="m 18.424853,7.1927047 c -0.324611,-0.361598 -0.06646,-0.759179 -0.02481,-1.125539 0.05364,-0.471962 0.249295,-0.816505 0.248472,-1.363275 -0.0011,-0.702488 -0.317602,-1.473897 -0.03208,-2.115744 0.175566,-0.394664 0.429112,-0.887158 1.012067,-0.726458 1.285429,0.354346 1.505378,1.776805 1.865297,2.787913 0.304543,0.85554 0.323558,2.588183 0.221965,2.721543 -0.202351,0.265623 -1.206344,-0.333583 -1.650076,-0.603373 -0.755267,0.122999 -1.453526,0.633582 -1.640833,0.424933 z"
       id="path34283-61" />
    <path
       style="fill:#e83e62;fill-opacity:0.994936;fill-rule:evenodd;stroke-width:0.106;paint-order:stroke fill markers;stop-color:#000000"
       d="m 18.520582,7.0017769 c 0.129323,-0.1718146 0.984504,-0.3329963 1.398135,-0.3348637 0.363553,-0.00164 1.281274,0.2388071 1.608084,0.5159619 0.235589,0.1997943 0.375558,0.37769 0.230374,0.6503468 -0.134636,0.2528464 -0.959954,-0.4414044 -1.59812,-0.5021963 -0.487763,-0.046464 -1.537415,0.2784028 -1.622948,0.2109013 -0.169961,-0.1341317 -0.145731,-0.3671631 -0.01553,-0.54015 z"
       id="path30953" />
  </g>
</svg>
