<?xml version="1.0" encoding="UTF-8" standalone="no"?>
<!-- Created with Inkscape (http://www.inkscape.org/) -->

<svg
   width="8.5131655mm"
   height="8.967659mm"
   viewBox="0 0 8.5131655 8.967659"
   version="1.1"
   id="svg29398"
   xmlns="http://www.w3.org/2000/svg"
   xmlns:svg="http://www.w3.org/2000/svg">
  <defs
     id="defs29395">
    <clipPath
       clipPathUnits="userSpaceOnUse"
       id="clipPath11757-0-3">
      <path
         d="m 8.9858,40.50708 h 577.304 v 760.8472 H 8.9858 Z"
         transform="translate(-325.06036,-609.66721)"
         id="path11757-6-8" />
    </clipPath>
    <clipPath
       clipPathUnits="userSpaceOnUse"
       id="clipPath11759-0-9">
      <path
         d="m 8.9858,40.50708 h 577.304 v 760.8472 H 8.9858 Z"
         transform="translate(1.4999999e-4,2.5000001e-5)"
         id="path11759-8-2" />
    </clipPath>
    <clipPath
       clipPathUnits="userSpaceOnUse"
       id="clipPath11761-5-4">
      <path
         d="m 8.9858,40.50708 h 577.304 v 760.8472 H 8.9858 Z"
         transform="translate(-288.30661,-663.11062)"
         id="path11761-3-5" />
    </clipPath>
    <clipPath
       clipPathUnits="userSpaceOnUse"
       id="clipPath11763-9-1">
      <path
         d="m 8.9858,40.50708 h 577.304 v 760.8472 H 8.9858 Z"
         transform="translate(1.4999999e-4,2.5000001e-5)"
         id="path11763-4-0" />
    </clipPath>
    <clipPath
       clipPathUnits="userSpaceOnUse"
       id="clipPath11765-1-0">
      <path
         d="m 8.9858,40.50708 h 577.304 v 760.8472 H 8.9858 Z"
         transform="translate(-297.63511,-663.21142)"
         id="path11765-5-1" />
    </clipPath>
    <clipPath
       clipPathUnits="userSpaceOnUse"
       id="clipPath11767-4-3">
      <path
         d="m 8.9858,40.50708 h 577.304 v 760.8472 H 8.9858 Z"
         transform="translate(1.4999999e-4,2.5000001e-5)"
         id="path11767-1-3" />
    </clipPath>
    <clipPath
       clipPathUnits="userSpaceOnUse"
       id="clipPath11769-5-0">
      <path
         d="m 8.9858,40.50708 h 577.304 v 760.8472 H 8.9858 Z"
         transform="translate(-304.75111,-658.04971)"
         id="path11769-5-0" />
    </clipPath>
    <clipPath
       clipPathUnits="userSpaceOnUse"
       id="clipPath11771-4-0">
      <path
         d="m 8.9858,40.50708 h 577.304 v 760.8472 H 8.9858 Z"
         transform="translate(-327.81961,-609.49951)"
         id="path11771-9-2" />
    </clipPath>
    <clipPath
       clipPathUnits="userSpaceOnUse"
       id="clipPath11773-8-2">
      <path
         d="m 8.9858,40.50708 h 577.304 v 760.8472 H 8.9858 Z"
         transform="translate(1.4999999e-4,2.5000001e-5)"
         id="path11773-3-2" />
    </clipPath>
    <clipPath
       clipPathUnits="userSpaceOnUse"
       id="clipPath11775-8-4">
      <path
         d="m 8.9858,40.50708 h 577.304 v 760.8472 H 8.9858 Z"
         transform="translate(-283.90486,-648.77971)"
         id="path11775-5-7" />
    </clipPath>
    <clipPath
       clipPathUnits="userSpaceOnUse"
       id="clipPath11777-2-9">
      <path
         d="m 8.9858,40.50708 h 577.304 v 760.8472 H 8.9858 Z"
         transform="translate(1.4999999e-4,2.5000001e-5)"
         id="path11777-2-8" />
    </clipPath>
    <clipPath
       clipPathUnits="userSpaceOnUse"
       id="clipPath11779-2-5">
      <path
         d="m 8.9858,40.50708 h 577.304 v 760.8472 H 8.9858 Z"
         transform="translate(1.4999999e-4,2.5000001e-5)"
         id="path11779-7-4" />
    </clipPath>
    <clipPath
       clipPathUnits="userSpaceOnUse"
       id="clipPath11781-0-7">
      <path
         d="m 8.9858,40.50708 h 577.304 v 760.8472 H 8.9858 Z"
         transform="translate(1.4999999e-4,2.5000001e-5)"
         id="path11781-3-8" />
    </clipPath>
  </defs>
  <g
     id="layer1"
     transform="translate(-14.785629,-27.826404)">
    <path
       id="path11756-7"
       d="m 0,0 c 0,0 4.044,8.981 0,9.752 -4.044,0.77 -3.448,-14.149 -32.329,-10.787 -18.812,2.189 -17.165,8.919 -21.595,10.816 0,0 -9.211,-0.607 -15.39,17.307 -6.179,17.914 -0.261,23.308 -1.102,27.738 -0.841,4.431 -9.507,14.64 5.707,30.82 15.215,16.181 21.558,18.3 35.623,18.685 14.064,0.385 28.659,-19.648 34.843,-21.189 6.183,-1.541 8.494,-2.736 11.768,-11.481 3.274,-8.744 7.896,-22.806 8.859,-44.958 0.963,-22.152 0,-15.218 0,-15.218"
       style="fill:#117097;fill-opacity:1;fill-rule:nonzero;stroke:#117097;stroke-width:1;stroke-linecap:butt;stroke-linejoin:miter;stroke-miterlimit:10;stroke-dasharray:none;stroke-opacity:1"
       transform="matrix(0.08391689,0,0,-0.08391689,21.006465,36.623961)"
       clip-path="url(#clipPath11757-0-3)" />
    <path
       id="path11758-2"
       d="m 288.3069,663.1106 c -0.074,0.763 -3.313,10.149 2.76,12.803 5.649,4.749 9.42,1.947 10.418,0.196 0.998,-1.751 -0.262,-6.86 -3.735,-10.314 -3.473,-3.455 -9.369,-3.448 -9.443,-2.685"
       style="fill:#ffffff;fill-opacity:1;fill-rule:nonzero;stroke:none"
       transform="matrix(0.08391689,0,0,-0.08391689,-6.271589,87.785338)"
       clip-path="url(#clipPath11759-0-9)" />
    <path
       id="path11760-8"
       d="m 0,0 c -0.074,0.763 -3.313,10.149 2.76,12.803 5.649,4.749 9.42,1.947 10.418,0.196 C 14.176,11.248 12.916,6.139 9.443,2.685 5.97,-0.77 0.074,-0.763 0,0 Z"
       style="fill:none;stroke:#117097;stroke-width:1;stroke-linecap:butt;stroke-linejoin:miter;stroke-miterlimit:10;stroke-dasharray:none;stroke-opacity:1"
       transform="matrix(0.08391689,0,0,-0.08391689,17.922212,32.139157)"
       clip-path="url(#clipPath11761-5-4)" />
    <path
       id="path11762-8"
       d="m 297.6348,663.2114 c -2.7,0.351 -6.139,-0.994 -7.889,-2.936 -1.749,-1.943 -2.721,-6.091 4.027,-7.622 6.756,-1.533 8.288,-0.084 8.792,2.308 0.505,2.393 -2.23,7.899 -4.93,8.25"
       style="fill:#ffffff;fill-opacity:1;fill-rule:nonzero;stroke:none"
       transform="matrix(0.08391689,0,0,-0.08391689,-6.271589,87.785338)"
       clip-path="url(#clipPath11763-9-1)" />
    <path
       id="path11764-7"
       d="m 0,0 c -2.7,0.351 -6.139,-0.994 -7.889,-2.936 -1.749,-1.943 -2.721,-6.091 4.027,-7.622 6.756,-1.533 8.288,-0.084 8.792,2.308 C 5.435,-5.857 2.7,-0.351 0,0 Z"
       style="fill:none;stroke:#117097;stroke-width:1;stroke-linecap:butt;stroke-linejoin:miter;stroke-miterlimit:10;stroke-dasharray:none;stroke-opacity:1"
       transform="matrix(0.08391689,0,0,-0.08391689,18.70503,32.130698)"
       clip-path="url(#clipPath11765-1-0)" />
    <path
       id="path11766-7"
       d="m 304.7512,658.0497 c 0,0 5.996,0.424 5.717,6.644 -0.279,6.219 -1.655,9.929 -4.619,9.62 -2.964,-0.31 -4.268,-5.379 -5.63,-8.843 -1.362,-3.464 4.532,-7.421 4.532,-7.421"
       style="fill:#ffffff;fill-opacity:1;fill-rule:nonzero;stroke:none"
       transform="matrix(0.08391689,0,0,-0.08391689,-6.271589,87.785338)"
       clip-path="url(#clipPath11767-4-3)" />
    <path
       id="path11768-3"
       d="M 0,0 C 0,0 5.996,0.424 5.717,6.644 5.438,12.863 4.062,16.573 1.098,16.264 -1.866,15.954 -3.17,10.885 -4.532,7.421 -5.894,3.957 0,0 0,0 Z"
       style="fill:none;stroke:#117097;stroke-width:1;stroke-linecap:butt;stroke-linejoin:miter;stroke-miterlimit:10;stroke-dasharray:none;stroke-opacity:1"
       transform="matrix(0.08391689,0,0,-0.08391689,19.302188,32.563853)"
       clip-path="url(#clipPath11769-5-0)" />
    <path
       id="path11770-5"
       d="m 0,0 c 0,0 3.321,18.953 2.96,32.698 -0.361,13.745 -9.097,17.073 -11.407,18.664 -2.311,1.592 -4.549,0 -4.549,0 0,0 0.578,1.375 0.867,2.46 0.288,1.085 -0.073,3.255 0.866,5.932 0.939,2.676 9.241,-1.158 9.241,-1.158 0,0 -0.866,1.447 -2.96,3.545 -2.094,2.098 -2.315,1.815 -7.292,1.447 -2.028,-0.15 -2.991,-0.587 -2.961,-0.585 0,0 0.867,0.657 -2.67,4.998 -0.92,1.128 -1.986,1.939 -3.167,2.512 -3.361,1.63 -7.652,1.335 -12.139,0.96 -6.065,-0.506 -7.942,-7.523 -9.242,-9.26 -1.3,-1.736 -4.982,-0.578 -8.447,0.796 -3.466,1.375 -5.559,3.617 -5.559,3.617 0,0 2.454,-5.281 5.992,-7.017 3.538,-1.736 7.148,-1.591 8.447,-9.115 1.3,-7.523 -5.992,-12.153 -10.902,-18.302 -4.909,-6.149 -2.815,-16.06 -3.104,-17.651 -0.289,-1.592 -1.661,-1.23 -5.704,1.663 -4.043,2.894 -5.631,7.813 -9.602,17.435 -3.971,9.621 -1.457,15.472 0,18.978 1.696,4.084 13.212,13.792 13.212,13.792 0,0 -9.711,-6.981 -12.368,-4.965 -4.909,3.111 -2.433,22.906 19.732,33.178 22.165,10.273 36.461,-0.506 45.413,-8.319 C 3.61,78.49 0,77.55 0.217,73.716 0.433,69.882 2.238,61.562 2.238,61.345 c 0,-0.217 -1.155,8.898 0.939,11.937 2.094,3.038 1.949,7.017 4.259,3.472 2.311,-3.545 8.159,-11.43 10.686,-25.753 2.527,-14.324 3.25085,-40.467661 3.25085,-40.467661"
       style="fill:#ffffff;fill-opacity:1;fill-rule:nonzero;stroke:#117097;stroke-width:1;stroke-linecap:butt;stroke-linejoin:miter;stroke-miterlimit:10;stroke-dasharray:none;stroke-opacity:1"
       transform="matrix(0.08391689,0,0,-0.08391689,21.23802,36.638034)"
       clip-path="url(#clipPath11771-4-0)" />
    <path
       id="path11772-3"
       d="m 283.905,648.7797 c 1.511,1.078 3.598,3.306 8.491,0.575 4.893,-2.731 13.816,-0.791 17.557,2.515 3.742,3.306 6.477,7.978 11.154,2.803 4.677,-5.174 19.817,-44.133 -22.955,-43.839 -31.373,0.216 -23.529,19.548 -22.594,25.01 0.935,5.462 8.347,12.936 8.347,12.936"
       style="fill:#ffffff;fill-opacity:1;fill-rule:nonzero;stroke:none"
       transform="matrix(0.08391689,0,0,-0.08391689,-6.271589,87.785338)"
       clip-path="url(#clipPath11773-8-2)" />
    <path
       id="path11774-9"
       d="M 0,0 C 1.511,1.078 3.598,3.306 8.491,0.575 13.384,-2.156 22.307,-0.216 26.048,3.09 29.79,6.396 32.525,11.068 37.202,5.893 41.879,0.719 57.019,-38.24 14.247,-37.946 -17.126,-37.73 -9.282,-18.398 -8.347,-12.936 -7.412,-7.474 0,0 0,0 Z"
       style="fill:none;stroke:#117097;stroke-width:1;stroke-linecap:butt;stroke-linejoin:miter;stroke-miterlimit:10;stroke-dasharray:none;stroke-opacity:1"
       transform="matrix(0.08391689,0,0,-0.08391689,17.55283,33.341761)"
       clip-path="url(#clipPath11775-8-4)" />
    <path
       id="path11776-0"
       d="m 284.6614,671.4219 3.26,-2.836 c 0,0 -0.142,5.672 4.394,7.656 4.535,1.985 0.141,4.813 0.141,4.813 0,0 -1.972,-0.555 -3.543,-2.547 -2.126,-2.695 -4.252,-7.086 -4.252,-7.086"
       style="fill:#117097;fill-opacity:1;fill-rule:nonzero;stroke:none"
       transform="matrix(0.08391689,0,0,-0.08391689,-6.271589,87.785338)"
       clip-path="url(#clipPath11777-2-9)" />
    <path
       id="path11778-8"
       d="m 303.3701,681.4844 -2.126,-5.812 c 0,0 -2.126,2.406 -3.827,2.406 -2.376,0 -3.543,-0.992 -3.543,-0.992 l -0.425,2.554 -0.992,1.563 c 0,0 3.118,0.703 4.535,0.843 1.417,0.141 6.378,-0.562 6.378,-0.562"
       style="fill:#117097;fill-opacity:1;fill-rule:nonzero;stroke:none"
       transform="matrix(0.08391689,0,0,-0.08391689,-6.271589,87.785338)"
       clip-path="url(#clipPath11779-2-5)" />
    <path
       id="path11780-1"
       d="m 304.6457,673.2656 2.268,7.227 c 0,0 5.46,-2.821 6.236,-7.086 0.283,-1.563 -4.11,-2.696 -4.11,-2.696 0,0 -0.709,2.555 -1.843,2.977 -1.598,0.601 -2.551,-0.422 -2.551,-0.422"
       style="fill:#117097;fill-opacity:1;fill-rule:nonzero;stroke:none"
       transform="matrix(0.08391689,0,0,-0.08391689,-6.271589,87.785338)"
       clip-path="url(#clipPath11781-0-7)" />
    <path
       style="fill:#e83e62;fill-opacity:0.994936;fill-rule:evenodd;stroke-width:0.106;paint-order:stroke fill markers;stop-color:#000000"
       d="m 21.442755,31.681826 c -0.230788,0.280909 -0.703705,0.06507 -1.039616,-0.03006 -0.297211,-0.08417 -0.554492,-0.383791 -0.28131,-0.527985 0.385245,-0.203342 0.579823,0.340365 0.944113,-0.09544 0.328559,-0.393061 -0.08938,-1.245691 0.480814,-1.183868 0.463115,0.494145 0.303762,1.392771 -0.104001,1.837352 z"
       id="path30953-7-6" />
  </g>
</svg>
