<?xml version="1.0" encoding="UTF-8" standalone="no"?>
<!-- Created with Inkscape (http://www.inkscape.org/) -->

<svg
   width="7.2525582mm"
   height="9.8988876mm"
   viewBox="0 0 7.2525582 9.8988876"
   version="1.1"
   id="svg29398"
   xmlns="http://www.w3.org/2000/svg"
   xmlns:svg="http://www.w3.org/2000/svg">
  <defs
     id="defs29395">
    <clipPath
       clipPathUnits="userSpaceOnUse"
       id="clipPath11119-3-1-6-5">
      <path
         d="m 8.9858,40.50708 h 577.304 v 760.8472 H 8.9858 Z"
         transform="translate(2.0000001e-4,2.5000001e-5)"
         id="path11119-6-2-1-9" />
    </clipPath>
    <clipPath
       clipPathUnits="userSpaceOnUse"
       id="clipPath11123-7-7-8-2">
      <path
         d="m 8.9858,40.50708 h 577.304 v 760.8472 H 8.9858 Z"
         transform="translate(2.0000001e-4,2.5000001e-5)"
         id="path11123-5-0-7-2" />
    </clipPath>
    <clipPath
       clipPathUnits="userSpaceOnUse"
       id="clipPath11125-3-9-9-8">
      <path
         d="m 8.9858,40.50708 h 577.304 v 760.8472 H 8.9858 Z"
         transform="translate(2.0000001e-4,2.5000001e-5)"
         id="path11125-5-3-2-9" />
    </clipPath>
  </defs>
  <g
     id="layer1"
     transform="translate(-3.2166763,-43.423178)">
    <path
       id="path11118-6-6-0-7"
       d="m 385.0947,635.9337 c -14.206,0 -16.78,-5.353 -16.78,-5.353 l -1.75,0.515 c 0,0 2.162,7.618 19.354,6.073 z"
       style="fill:#117097;fill-opacity:1;fill-rule:nonzero;stroke:none"
       transform="matrix(0.11127338,0,0,-0.11127338,-33.425947,123.33079)"
       clip-path="url(#clipPath11119-3-1-6-5)" />
    <path
       id="path11122-2-0-2-3"
       d="m 390.5381,637.9877 c -0.82,0.82 -1.621,3.927 -0.328,9.187 2.452,9.976 1.476,9.515 1.476,13.288 0,3.773 0,4.921 1.477,6.398 1.476,1.476 1.312,2.953 1.312,10.007 0,17.416 -9.925,30.922 -13.452,34.449 -3.527,3.527 -15.092,9.351 -20.506,5.578 -5.414,-3.773 -20.506,-9.023 -27.396,-24.279 -6.89,-15.257 0,-27.396 0,-27.396 0,0 -7.532,-15.345 -1.439,-24.484 6.092,-9.139 13.813,-13.195 20.41,-4.772 4.772,6.092 5.991,1.827 7.92,-0.102 1.929,-1.929 3.656,-4.772 4.366,-6.702 l 0.914,3.25 c 0,0 -5.94,6.549 -7.615,8.224 -1.676,1.676 -0.813,17.567 -0.813,20.817 0,3.249 11.068,8.225 14.622,9.24 0,0 -9.24,-2.437 -11.575,-3.655 -2.336,-1.219 -3.758,1.218 -3.758,3.757 0,2.538 3.554,12.286 3.554,18.48 0,6.194 -3.464,15.681 1.524,22.238 4.987,6.556 14.047,3.849 21.323,-14.521 6.194,-15.637 4.468,-29.142 4.468,-31.985 -2.741,-1.016 -11.22,3.3 -12.388,4.468 0,0 5.382,-4.671 12.693,-8.53 3.263,-1.722 2.234,-6.499 1.218,-10.764 -1.015,-4.264 -2.031,-11.068 0.508,-13.606 z"
       style="fill:#117097;fill-opacity:1;fill-rule:nonzero;stroke:none"
       transform="matrix(0.11127338,0,0,-0.11127338,-33.425947,123.33079)"
       clip-path="url(#clipPath11123-7-7-8-2)" />
    <path
       id="path11124-9-6-3-6"
       d="m 342.2424,673.7369 c 0,0 2.64,-4.671 8.326,-7.717 4.62,-2.475 4.164,-10.865 4.164,-17.262 0,-6.398 -3.047,-13.201 -8.022,-14.419 -4.976,-1.219 -10.459,-1.422 -14.114,9.748 -3.656,11.169 0.507,15.231 2.03,18.684 1.524,3.452 1.93,4.569 2.742,6.498 0.812,1.93 1.675,3.808 2.437,4.57 -1.478,-1.083 -3.554,-3.047 -4.874,-5.484 0,0 -4.163,15.232 2.742,25.284 6.904,10.053 11.474,13.708 13.809,15.028 0,0 1.828,1.929 1.32,-6.397 -0.507,-8.326 -1.929,-23.862 -1.32,-27.619 0.61,-3.757 1.193,-6.684 -1.32,-5.788 -3.157,1.126 -5.077,2.945 -7.92,4.874"
       style="fill:#ffffff;fill-opacity:1;fill-rule:nonzero;stroke:none"
       transform="matrix(0.11127338,0,0,-0.11127338,-33.425947,123.33079)"
       clip-path="url(#clipPath11125-3-9-9-8)" />
    <path
       style="fill:#e83e62;fill-opacity:0.994936;fill-rule:evenodd;stroke-width:0.106;paint-order:stroke fill markers;stop-color:#000000"
       d="m 3.9566634,48.362461 c -0.1550151,0.009 -0.093067,-0.591152 -0.05198,-0.941631 0.1101624,-0.939711 0.5031574,-1.349817 0.7622828,-1.700459 0.2385545,-0.322807 0.8464303,-1.084957 0.9608647,-1.009742 0.1299287,0.0854 -0.018423,1.49659 -0.064449,2.395193 -0.030642,0.59824 -0.105782,0.642363 -0.096929,1.480295 C 4.7313022,48.070936 4.1532164,48.351018 3.9566634,48.362461 Z"
       id="path29774-29" />
    <path
       style="fill:#ffffff;fill-opacity:1;fill-rule:evenodd;stroke-width:0.106;paint-order:stroke fill markers;stop-color:#000000"
       d="m 6.3081524,49.605151 c 0.3122359,-0.379882 1.419495,-0.847169 1.5545543,-0.846625 0.1929519,7.77e-4 0.2097676,0.05846 0.5559139,0.24727 0.3461462,0.188807 0.499808,0.322585 1.3617558,0.880795 0.2969836,0.545366 0.057525,0.51744 -0.1007735,1.831151 -0.03186,0.2644 0.013738,0.467563 0.034531,0.798193 -0.2711551,-0.06325 -0.8740807,-0.14291 -1.3539264,-0.03109 -0.3764086,0.08771 -0.8525507,0.238475 -1.0156896,0.64693 -0.3806519,-0.423166 -0.5076197,-0.509983 -1.0318575,-1.113024 -0.065878,-0.593395 -0.1457549,-1.884249 -0.00451,-2.4136 z"
       id="path33181-1-0" />
    <path
       style="fill:#ffffff;fill-opacity:1;fill-rule:evenodd;stroke-width:0.106;paint-order:stroke fill markers;stop-color:#000000"
       d="M 6.3397342,49.114011 C 6.0151225,48.752413 6.2732782,48.354832 6.3149202,47.988472 6.3685652,47.51651 6.564215,47.171967 6.5633916,46.625197 6.5623316,45.922709 6.2457903,45.1513 6.5313146,44.509453 c 0.1755655,-0.394664 0.4291115,-0.887158 1.0120662,-0.726458 1.2854297,0.354346 1.5053786,1.776805 1.8652977,2.787913 0.3045423,0.85554 0.3235581,2.588183 0.2219646,2.721543 C 9.428292,49.558074 8.4242991,48.958868 7.9805665,48.689078 7.2253001,48.812077 6.5270413,49.32266 6.3397342,49.114011 Z"
       id="path34283-6" />
  </g>
</svg>
